<?xml version="1.0" encoding="utf-8"?>
<!-- Generator: Adobe Illustrator 23.0.1, SVG Export Plug-In . SVG Version: 6.00 Build 0)  -->
<svg version="1.1"
	 id="Layer_1" xmlns:cc="http://creativecommons.org/ns#" xmlns:dc="http://purl.org/dc/elements/1.1/" xmlns:inkscape="http://www.inkscape.org/namespaces/inkscape" xmlns:rdf="http://www.w3.org/1999/02/22-rdf-syntax-ns#" xmlns:sodipodi="http://sodipodi.sourceforge.net/DTD/sodipodi-0.dtd" xmlns:svg="http://www.w3.org/2000/svg"
	 xmlns="http://www.w3.org/2000/svg" xmlns:xlink="http://www.w3.org/1999/xlink" x="0px" y="0px" viewBox="0 0 560 277.4"
	 style="enable-background:new 0 0 560 277.4;" xml:space="preserve">
<style type="text/css">
	.st0{fill:#14562E;}
</style>
<sodipodi:namedview  bordercolor="#666666" borderopacity="1" gridtolerance="10" guidetolerance="10" id="namedview15" inkscape:current-layer="Layer_1" inkscape:cx="89.402931" inkscape:cy="254.27161" inkscape:pageopacity="0" inkscape:pageshadow="2" inkscape:window-height="1053" inkscape:window-maximized="1" inkscape:window-width="1890" inkscape:window-x="1470" inkscape:window-y="113" inkscape:zoom="1.0488889" objecttolerance="10" pagecolor="#ffffff" showgrid="false">
	</sodipodi:namedview>
<g id="g12" transform="translate(-170.1,-349.7)">
	<g>
		<polygon id="polygon4_8_" class="st0" points="204.6,451.6 204.6,417 288.7,417 288.7,390.6 173.1,390.6 173.1,546.5 291.7,546.5 
			291.7,520.3 204.6,520.3 204.6,477.8 282.9,477.8 282.9,451.6 		"/>
		<polygon id="polygon6_8_" class="st0" points="429,546.5 429,520.3 350.7,520.3 350.7,391.9 319.2,391.9 319.2,546.5 		"/>
		<path id="path8_8_" inkscape:connector-curvature="0" class="st0" d="M561.8,408.2c-6-7.8-13.5-12.9-22.4-15.3
			c-5.8-1.6-18.3-2.3-37.4-2.3h-50.5v155.9H483v-58.8h20.5c14.2,0,25.1-0.7,32.6-2.2c5.5-1.2,11-3.7,16.3-7.4
			c5.4-3.7,9.8-8.8,13.2-15.4c3.5-6.5,5.2-14.6,5.2-24.1C570.8,426.2,567.8,416.1,561.8,408.2z M534.8,451.1c-2.4,3.5-5.7,6-9.8,7.7
			c-4.2,1.6-12.5,2.4-24.9,2.4h-17.2V417h15.2c11.3,0,18.9,0.4,22.6,1.1c5.1,0.9,9.3,3.2,12.7,6.9c3.3,3.7,5,8.4,5,14
			C538.4,443.6,537.2,447.7,534.8,451.1L534.8,451.1z"/>
		<path id="path10_8_" inkscape:connector-curvature="0" class="st0" d="M727.1,484.9h-24.6l-5-12.5h16.8v-26.5H687l-24-60.2
			l12-32.9h-24.5l-2.8,9.7l-3.2-9.7h-24.6l12.9,34.3l-1.3,3.5h-0.1l-21.5,55.3h-26.4v26.5h16.1l-4.9,12.5h-26.3v26.5h16l-13.7,35.2
			H604l12.9-35.2h62.4l13.5,35.2H727l-14-35.3h14.1V484.9z M647.7,427.2l6.9,18.7h-13.8L647.7,427.2z M626.6,484.9l4.6-12.5h33.3
			l4.6,12.5H626.6z"/>
	</g>
</g>
<g>
	<path class="st0" d="M165.6,274.2l-2.6-7.5h-18.9l-2.8,7.5h-6.9l14.8-38.6h9l14.5,38.6H165.6z M153.6,239.9l-7.8,21.9h15.6
		L153.6,239.9z"/>
	<path class="st0" d="M203.5,274.2l-20.2-30.1v30.1h-6.6v-38.6h8.5l19.9,29.9v-29.9h6.6v38.6H203.5z"/>
	<path class="st0" d="M246.6,274.2l-20.2-30.1v30.1h-6.6v-38.6h8.5l19.9,29.9v-29.9h6.6v38.6H246.6z"/>
	<path class="st0" d="M298.3,255c0,2.6-0.3,5.1-0.8,7.5c-0.5,2.4-1.5,4.5-2.8,6.3c-1.4,1.8-3.2,3.2-5.6,4.3
		c-2.4,1.1-5.4,1.6-9.2,1.6c-3.7,0-6.7-0.5-9.1-1.6c-2.4-1.1-4.3-2.5-5.6-4.3c-1.4-1.8-2.3-3.9-2.8-6.3c-0.5-2.4-0.8-4.9-0.8-7.6
		c0-2.7,0.3-5.2,0.8-7.5c0.5-2.4,1.5-4.4,2.9-6.2s3.3-3.2,5.6-4.3c2.4-1.1,5.4-1.6,9.1-1.6c3.7,0,6.8,0.5,9.2,1.6
		c2.4,1.1,4.2,2.5,5.6,4.3c1.4,1.8,2.3,3.9,2.8,6.3C298,249.8,298.3,252.3,298.3,255z M291.6,255c0-2-0.2-3.9-0.5-5.6
		c-0.3-1.7-0.9-3.2-1.7-4.5c-0.9-1.3-2.1-2.3-3.6-3c-1.5-0.7-3.5-1.1-5.9-1.1s-4.4,0.4-5.9,1.1c-1.5,0.7-2.7,1.7-3.5,3
		s-1.4,2.8-1.7,4.5c-0.3,1.7-0.5,3.6-0.5,5.5c0,2,0.2,3.9,0.5,5.6c0.3,1.7,0.9,3.2,1.7,4.5c0.8,1.3,2,2.3,3.5,3
		c1.5,0.7,3.5,1.1,5.9,1.1s4.4-0.4,5.9-1.1c1.5-0.7,2.7-1.8,3.6-3c0.9-1.3,1.4-2.8,1.7-4.5C291.5,258.8,291.6,256.9,291.6,255z"/>
	<path class="st0" d="M322.6,274.2v-33.1h-7.4v-4.5l7.5-0.9h6.4v38.6H322.6z"/>
	<path class="st0" d="M366.3,254.9c0,3.6-0.3,6.6-1,9.1c-0.6,2.5-1.6,4.5-2.9,6.1c-1.3,1.6-2.9,2.7-4.9,3.5c-2,0.7-4.4,1.1-7.1,1.1
		c-2.4,0-4.5-0.2-6.3-0.7c-1.8-0.5-3.4-1.2-4.7-2.2c-1.3-1-2.2-2.3-2.9-3.9c-0.7-1.6-1-3.5-1-5.8h6.4c0,2.5,0.7,4.3,2.1,5.5
		c1.4,1.1,3.5,1.7,6.3,1.7c2.1,0,3.8-0.4,5-1.1s2.2-1.8,2.9-3.2c0.7-1.3,1.1-2.9,1.3-4.8c0.2-1.8,0.3-3.8,0.2-5.9
		c-0.2,0.7-0.5,1.4-1,2s-1.1,1.3-2,1.8c-0.8,0.5-1.9,1-3.1,1.3c-1.2,0.3-2.7,0.5-4.4,0.5c-1.8,0-3.5-0.2-5.2-0.6
		c-1.7-0.4-3.1-1.1-4.4-2c-1.3-0.9-2.3-2.2-3.1-3.7c-0.8-1.5-1.2-3.4-1.2-5.7c0-1.8,0.3-3.4,0.8-4.9c0.6-1.5,1.4-2.9,2.7-4
		c1.2-1.1,2.8-2,4.6-2.7c1.9-0.7,4.2-1,6.8-1c3.2,0,5.8,0.4,7.8,1.3s3.7,2.1,4.9,3.7c1.2,1.6,2,3.7,2.5,6.1
		C366,248.8,366.3,251.6,366.3,254.9z M359.3,247.9c0-1-0.2-1.9-0.5-2.8c-0.3-0.9-0.9-1.7-1.6-2.4s-1.6-1.2-2.8-1.6
		c-1.1-0.4-2.5-0.6-4-0.6c-2.6,0-4.7,0.6-6.1,1.9c-1.5,1.3-2.2,3.1-2.2,5.4c0,1,0.1,1.9,0.4,2.7c0.3,0.8,0.8,1.5,1.5,2.1
		s1.6,1.1,2.8,1.4c1.1,0.3,2.6,0.5,4.2,0.5c3,0,5.1-0.7,6.4-2C358.6,251.3,359.3,249.7,359.3,247.9z"/>
	<path class="st0" d="M401.8,254.9c0,3.6-0.3,6.6-1,9.1c-0.6,2.5-1.6,4.5-2.9,6.1c-1.3,1.6-2.9,2.7-4.9,3.5c-2,0.7-4.4,1.1-7.1,1.1
		c-2.4,0-4.5-0.2-6.3-0.7c-1.8-0.5-3.4-1.2-4.7-2.2c-1.3-1-2.2-2.3-2.9-3.9c-0.7-1.6-1-3.5-1-5.8h6.4c0,2.5,0.7,4.3,2.1,5.5
		c1.4,1.1,3.5,1.7,6.3,1.7c2.1,0,3.8-0.4,5-1.1s2.2-1.8,2.9-3.2c0.7-1.3,1.1-2.9,1.3-4.8c0.2-1.8,0.3-3.8,0.2-5.9
		c-0.2,0.7-0.5,1.4-1,2s-1.1,1.3-2,1.8c-0.8,0.5-1.9,1-3.1,1.3c-1.2,0.3-2.7,0.5-4.4,0.5c-1.8,0-3.5-0.2-5.2-0.6
		c-1.7-0.4-3.1-1.1-4.4-2c-1.3-0.9-2.3-2.2-3.1-3.7c-0.8-1.5-1.2-3.4-1.2-5.7c0-1.8,0.3-3.4,0.8-4.9c0.6-1.5,1.4-2.9,2.7-4
		c1.2-1.1,2.8-2,4.6-2.7c1.9-0.7,4.2-1,6.8-1c3.2,0,5.8,0.4,7.8,1.3s3.7,2.1,4.9,3.7c1.2,1.6,2,3.7,2.5,6.1
		C401.6,248.8,401.8,251.6,401.8,254.9z M394.8,247.9c0-1-0.2-1.9-0.5-2.8c-0.3-0.9-0.9-1.7-1.6-2.4s-1.6-1.2-2.8-1.6
		c-1.1-0.4-2.5-0.6-4-0.6c-2.6,0-4.7,0.6-6.1,1.9c-1.5,1.3-2.2,3.1-2.2,5.4c0,1,0.1,1.9,0.4,2.7c0.3,0.8,0.8,1.5,1.5,2.1
		s1.6,1.1,2.8,1.4c1.1,0.3,2.6,0.5,4.2,0.5c3,0,5.1-0.7,6.4-2C394.2,251.3,394.8,249.7,394.8,247.9z"/>
	<path class="st0" d="M435.3,262.1c0,1.7-0.3,3.3-0.8,4.8c-0.5,1.5-1.4,2.8-2.6,4c-1.2,1.1-2.7,2.1-4.5,2.7c-1.8,0.7-4,1-6.6,1
		c-2.7,0-4.9-0.4-6.8-1.1c-1.8-0.7-3.4-1.7-4.5-2.9c-1.2-1.2-2-2.7-2.6-4.3c-0.5-1.7-0.8-3.5-0.8-5.4h6.2c0,2.5,0.7,4.5,2.1,6
		c1.4,1.5,3.6,2.2,6.5,2.2c1.4,0,2.5-0.2,3.5-0.6c1-0.4,1.8-0.9,2.4-1.6c0.6-0.7,1.1-1.4,1.4-2.3s0.4-1.7,0.4-2.7
		c0-1-0.2-1.9-0.5-2.8c-0.3-0.9-0.8-1.6-1.6-2.3c-0.7-0.6-1.8-1.1-3.1-1.5c-1.3-0.4-3-0.5-5-0.5H413v-4.8l13.6-9.1h-19v-5.4h26.2
		v6.9l-13,7.5c1.9,0,3.7,0.2,5.4,0.6s3.3,1.1,4.6,2c1.3,0.9,2.4,2.2,3.2,3.7C434.9,258,435.3,259.9,435.3,262.1z"/>
</g>
</svg>
