<?xml version="1.0" encoding="UTF-8" standalone="no"?>
<!-- Generator: Adobe Illustrator 19.2.0, SVG Export Plug-In . SVG Version: 6.00 Build 0)  -->

<svg
   xmlns:dc="http://purl.org/dc/elements/1.1/"
   xmlns:cc="http://creativecommons.org/ns#"
   xmlns:rdf="http://www.w3.org/1999/02/22-rdf-syntax-ns#"
   xmlns:svg="http://www.w3.org/2000/svg"
   xmlns="http://www.w3.org/2000/svg"
   xmlns:sodipodi="http://sodipodi.sourceforge.net/DTD/sodipodi-0.dtd"
   xmlns:inkscape="http://www.inkscape.org/namespaces/inkscape"
   version="1.1"
   id="Layer_1"
   x="0px"
   y="0px"
   viewBox="0 0 220 300"
   xml:space="preserve"
   sodipodi:docname="logo-short.svg"
   width="220"
   height="300"
   inkscape:version="0.92.3 (2405546, 2018-03-11)"><metadata
   id="metadata19"><rdf:RDF><cc:Work
       rdf:about=""><dc:format>image/svg+xml</dc:format><dc:type
         rdf:resource="http://purl.org/dc/dcmitype/StillImage" /><dc:title></dc:title></cc:Work></rdf:RDF></metadata><defs
   id="defs17">
	
	
	
	
</defs><sodipodi:namedview
   pagecolor="#ffffff"
   bordercolor="#666666"
   borderopacity="1"
   objecttolerance="10"
   gridtolerance="10"
   guidetolerance="10"
   inkscape:pageopacity="0"
   inkscape:pageshadow="2"
   inkscape:window-width="1890"
   inkscape:window-height="1053"
   id="namedview15"
   showgrid="false"
   inkscape:zoom="2.0977778"
   inkscape:cx="148.86289"
   inkscape:cy="118.55007"
   inkscape:window-x="30"
   inkscape:window-y="0"
   inkscape:window-maximized="1"
   inkscape:current-layer="Layer_1" />
<style
   type="text/css"
   id="style2">
	.st0{fill:#014B2B;}
</style>
<path
   style="fill:#018040;fill-opacity:1"
   inkscape:connector-curvature="0"
   id="path10"
   d="m 189.35,154.30219 h -24.6 l -5,-12.5 h 16.8 v -26.5 h -27.3 l -24,-60.199999 12,-32.9 h -24.5 l -2.8,9.7 -3.2,-9.7 h -24.6 l 12.9,34.3 -1.3,3.5 h -0.1 l -21.5,55.299999 h -26.4 v 26.5 h 16.1 l -4.9,12.5 h -26.3 v 26.5 h 16 l -13.7,35.2 h 33.3 l 12.9,-35.2 h 62.4 l 13.5,35.2 h 34.2 l -14,-35.3 h 14.1 z m -79.4,-57.699999 6.9,18.699999 h -13.8 z m -21.1,57.699999 4.6,-12.5 h 33.3 l 4.6,12.5 z"
   class="st0" />
<text
   xml:space="preserve"
   style="font-style:normal;font-weight:normal;font-size:40px;line-height:1.25;font-family:sans-serif;letter-spacing:0px;word-spacing:0px;fill:#018040;fill-opacity:1;stroke:none"
   x="21.962891"
   y="271.875"
   id="text823"><tspan
     sodipodi:role="line"
     id="tspan821"
     x="21.962891"
     y="271.875">SIA ELPA</tspan></text>
</svg>