<?xml version="1.0" encoding="UTF-8" standalone="no"?>
<!-- Generator: Adobe Illustrator 19.2.0, SVG Export Plug-In . SVG Version: 6.00 Build 0)  -->

<svg
   xmlns:dc="http://purl.org/dc/elements/1.1/"
   xmlns:cc="http://creativecommons.org/ns#"
   xmlns:rdf="http://www.w3.org/1999/02/22-rdf-syntax-ns#"
   xmlns:svg="http://www.w3.org/2000/svg"
   xmlns="http://www.w3.org/2000/svg"
   xmlns:sodipodi="http://sodipodi.sourceforge.net/DTD/sodipodi-0.dtd"
   xmlns:inkscape="http://www.inkscape.org/namespaces/inkscape"
   version="1.1"
   id="Layer_1"
   x="0px"
   y="0px"
   viewBox="0 0 159 194"
   xml:space="preserve"
   sodipodi:docname="logo-icon.svg"
   width="159"
   height="194"
   inkscape:version="0.92.4 (5da689c313, 2019-01-14)"
   inkscape:export-filename="C:\Users\Reinards\Documents\reinards\projects\elpa\src\images\logo-icon.png"
   inkscape:export-xdpi="96"
   inkscape:export-ydpi="96"><metadata
   id="metadata19"><rdf:RDF><cc:Work
       rdf:about=""><dc:format>image/svg+xml</dc:format><dc:type
         rdf:resource="http://purl.org/dc/dcmitype/StillImage" /><dc:title></dc:title></cc:Work></rdf:RDF></metadata><defs
   id="defs17">
	
	
	
	
</defs><sodipodi:namedview
   pagecolor="#ffffff"
   bordercolor="#666666"
   borderopacity="1"
   objecttolerance="10"
   gridtolerance="10"
   guidetolerance="10"
   inkscape:pageopacity="0"
   inkscape:pageshadow="2"
   inkscape:window-width="1920"
   inkscape:window-height="1017"
   id="namedview15"
   showgrid="false"
   inkscape:zoom="2.0977778"
   inkscape:cx="77.358653"
   inkscape:cy="118.55007"
   inkscape:window-x="-8"
   inkscape:window-y="-8"
   inkscape:window-maximized="1"
   inkscape:current-layer="Layer_1" />
<style
   type="text/css"
   id="style2">
	.st0{fill:#014B2B;}
</style>
<path
   style="fill:#018040;fill-opacity:1"
   inkscape:connector-curvature="0"
   id="path10"
   d="m 158.7,132.3 h -24.6 l -5,-12.5 h 16.8 V 93.3 h -27.3 l -24,-60.2 12,-32.9 H 82.1 L 79.3,9.9 76.1,0.2 H 51.5 L 64.4,34.5 63.1,38 H 63 L 41.5,93.3 H 15.1 v 26.5 h 16.1 l -4.9,12.5 H 0 v 26.5 H 16 L 2.3,194 h 33.3 l 12.9,-35.2 h 62.4 l 13.5,35.2 h 34.2 l -14,-35.3 h 14.1 z M 79.3,74.6 86.2,93.3 H 72.4 Z m -21.1,57.7 4.6,-12.5 h 33.3 l 4.6,12.5 z"
   class="st0" />

</svg>