<?xml version="1.0" encoding="UTF-8" standalone="no"?>
<svg
   xmlns:dc="http://purl.org/dc/elements/1.1/"
   xmlns:cc="http://creativecommons.org/ns#"
   xmlns:rdf="http://www.w3.org/1999/02/22-rdf-syntax-ns#"
   xmlns:svg="http://www.w3.org/2000/svg"
   xmlns="http://www.w3.org/2000/svg"
   xmlns:sodipodi="http://sodipodi.sourceforge.net/DTD/sodipodi-0.dtd"
   xmlns:inkscape="http://www.inkscape.org/namespaces/inkscape"
   id="Layer_1"
   data-name="Layer 1"
   viewBox="0 0 52 79"
   version="1.1"
   sodipodi:docname="mouse.svg"
   width="52"
   height="79"
   inkscape:version="0.92.3 (2405546, 2018-03-11)">
  <metadata
     id="metadata13">
    <rdf:RDF>
      <cc:Work
         rdf:about="">
        <dc:format>image/svg+xml</dc:format>
        <dc:type
           rdf:resource="http://purl.org/dc/dcmitype/StillImage" />
        <dc:title>pelite</dc:title>
      </cc:Work>
    </rdf:RDF>
  </metadata>
  <sodipodi:namedview
     pagecolor="#ffffff"
     bordercolor="#666666"
     borderopacity="1"
     objecttolerance="10"
     gridtolerance="10"
     guidetolerance="10"
     inkscape:pageopacity="0"
     inkscape:pageshadow="2"
     inkscape:window-width="1890"
     inkscape:window-height="1053"
     id="namedview11"
     showgrid="false"
     inkscape:zoom="6.675088"
     inkscape:cx="13.063611"
     inkscape:cy="59.135705"
     inkscape:window-x="1470"
     inkscape:window-y="113"
     inkscape:window-maximized="1"
     inkscape:current-layer="Layer_1" />
  <defs
     id="defs4">
    <style
       id="style2">.cls-1{fill:#018040;}</style>
  </defs>
  <title
     id="title6">pelite</title>
  <path
     class="cls-1"
     d="m 26.04,66.315 -13.83,-14.62 4.49,-4.2 9.34,9.87 9.26,-9.87 4.49,4.22 z m 25.53,-5.87 V 18.555 A 18.5,18.5 0 0 0 33.09,0.075 H 18.91 A 18.5,18.5 0 0 0 0.43,18.555 v 41.89 a 18.5,18.5 0 0 0 18.48,18.48 H 33.08 A 18.5,18.5 0 0 0 51.56,60.435 Z M 33.08,6.235 a 12.33,12.33 0 0 1 12.32,12.32 v 41.89 A 12.33,12.33 0 0 1 33.08,72.765 H 18.91 A 12.33,12.33 0 0 1 6.59,60.445 V 18.555 A 12.33,12.33 0 0 1 18.91,6.235 Z M 26,12.545 a 3.08,3.08 0 1 0 3.08,3.08 3.08,3.08 0 0 0 -3.08,-3.08 z m 0,12.32 a 3.08,3.08 0 1 0 3.08,3.08 3.08,3.08 0 0 0 -3.08,-3.08 z m 0,12.32 a 3.08,3.08 0 1 0 3.08,3.08 3.08,3.08 0 0 0 -3.08,-3.08 z"
     id="path8"
     inkscape:connector-curvature="0"
     style="fill:#018040" />
</svg>
